<svg width="49" height="30" viewBox="0 0 49 30" fill="none" xmlns="http://www.w3.org/2000/svg">
<path d="M27.3929 14.5721C27.3929 16.165 26.1792 17.4563 24.6819 17.4563C23.1846 17.4563 21.9709 16.165 21.9709 14.5721C21.9709 12.9793 23.1846 11.688 24.6819 11.688C26.1792 11.688 27.3929 12.9793 27.3929 14.5721Z" fill="white"/>
<path d="M16.3767 14.6179C16.3767 15.4776 15.7217 16.1744 14.9136 16.1744C14.1056 16.1744 13.4505 15.4776 13.4505 14.6179C13.4505 13.7583 14.1056 13.0614 14.9136 13.0614C15.7217 13.0614 16.3767 13.7583 16.3767 14.6179Z" fill="white"/>
<path d="M42.196 4.77522C42.196 5.66015 41.5217 6.37752 40.6899 6.37752C39.858 6.37752 39.1837 5.66015 39.1837 4.77522C39.1837 3.89029 39.858 3.17292 40.6899 3.17292C41.5217 3.17292 42.196 3.89029 42.196 4.77522Z" fill="white"/>
<path d="M14.3972 28.3977C14.3972 29.2826 13.7422 30 12.9341 30C12.1261 30 11.471 29.2826 11.471 28.3977C11.471 27.5128 12.1261 26.7954 12.9341 26.7954C13.7422 26.7954 14.3972 27.5128 14.3972 28.3977Z" fill="white"/>
<path fill-rule="evenodd" clip-rule="evenodd" d="M47.529 8.789C48.2168 7.17238 48.3067 5.79082 47.8813 4.66386C47.4559 3.53689 46.4929 2.60517 44.9452 1.94351C43.3946 1.28062 41.3293 0.923969 38.8641 0.915746C33.9385 0.899316 27.5976 2.27409 21.0317 5.07903C14.4658 7.88398 8.99209 11.5564 5.44511 15.1923C3.66989 17.012 2.40998 18.7892 1.72096 20.4088C1.03324 22.0254 0.943317 23.407 1.36869 24.5339C1.79407 25.6609 2.75715 26.5926 4.30482 27.2543C5.85537 27.9172 7.92071 28.2738 10.3859 28.2821C15.3115 28.2985 21.6524 26.9237 28.2183 24.1188C34.7842 21.3138 40.2579 17.6414 43.8049 14.0055C45.5801 12.1858 46.84 10.4086 47.529 8.789ZM28.539 24.9684C41.8242 19.293 50.8416 10.0496 48.68 4.32267C46.5183 -1.40426 33.9962 -1.44603 20.711 4.22938C7.4258 9.90478 -1.59161 19.1482 0.570036 24.8751C2.73169 30.6021 15.2538 30.6438 28.539 24.9684Z" fill="white"/>
<path fill-rule="evenodd" clip-rule="evenodd" d="M42.2381 10.0059C42.7593 8.77636 42.8139 7.75673 42.5066 6.94264C42.1993 6.12856 41.4971 5.43222 40.3213 4.92766C39.1426 4.42182 37.5592 4.14372 35.6532 4.13551C31.8458 4.11912 26.9311 5.18003 21.8344 7.35731C16.7377 9.53459 12.4982 12.3844 9.75887 15.1975C8.38749 16.6058 7.42466 17.9716 6.9021 19.2043C6.38087 20.4338 6.32632 21.4534 6.6336 22.2675C6.94088 23.0816 7.64313 23.7779 8.81889 24.2825C9.99764 24.7883 11.581 25.0664 13.487 25.0746C17.2944 25.091 22.2091 24.0301 27.3058 21.8528C32.4025 19.6756 36.642 16.8258 39.3813 14.0126C40.7527 12.6043 41.7155 11.2385 42.2381 10.0059ZM27.6265 22.7025C37.9736 18.2822 44.9933 11.0735 43.3053 6.60146C41.6173 2.12937 31.8608 2.08738 21.5137 6.50765C11.1666 10.9279 4.14694 18.1366 5.83494 22.6087C7.52295 27.0808 17.2794 27.1228 27.6265 22.7025Z" fill="white"/>
<path fill-rule="evenodd" clip-rule="evenodd" d="M36.0004 11.5289C36.3133 10.7538 36.3249 10.1462 36.1489 9.67984C35.9729 9.21345 35.5695 8.78319 34.8396 8.45352C34.1054 8.12193 33.1024 7.92395 31.8729 7.90196C29.4176 7.85803 26.2335 8.51876 22.926 9.93171C19.6185 11.3447 16.8891 13.2101 15.1443 15.0484C14.2705 15.9689 13.6748 16.8498 13.36 17.6295C13.0471 18.4047 13.0355 19.0123 13.2115 19.4786C13.3875 19.945 13.791 20.3753 14.5209 20.705C15.255 21.0365 16.258 21.2345 17.4875 21.2565C19.9428 21.3004 23.1269 20.6397 26.4344 19.2268C29.7419 17.8138 32.4713 15.9483 34.2161 14.1101C35.0899 13.1896 35.6857 12.3086 36.0004 11.5289ZM26.7551 20.0764C33.5302 17.1821 38.0935 12.3747 36.9476 9.33865C35.8016 6.30264 29.3803 6.18776 22.6053 9.08205C15.8302 11.9763 11.2669 16.7838 12.4128 19.8198C13.5588 22.8558 19.9801 22.9707 26.7551 20.0764Z" fill="white"/>
</svg>
